<mxfile host="app.diagrams.net" modified="2024-05-18T18:03:05.282Z" agent="Mozilla/5.0 (Windows NT 10.0; Win64; x64) AppleWebKit/537.36 (KHTML, like Gecko) Chrome/124.0.0.0 Safari/537.36 Edg/124.0.0.0" etag="1XYMdG5ApfavgYzk-YZ1" version="24.4.0" type="device">
  <diagram name="Page-1" id="A4LpQqqGDsHdMLVN5mua">
    <mxGraphModel dx="978" dy="554" grid="1" gridSize="10" guides="1" tooltips="1" connect="1" arrows="1" fold="1" page="1" pageScale="1" pageWidth="827" pageHeight="1169" math="0" shadow="0">
      <root>
        <mxCell id="0" />
        <mxCell id="1" parent="0" />
        <mxCell id="jx57GtcmGhfgWrr7523l-51" style="edgeStyle=orthogonalEdgeStyle;rounded=0;orthogonalLoop=1;jettySize=auto;html=1;entryX=1;entryY=0.5;entryDx=0;entryDy=0;endArrow=none;endFill=0;" edge="1" parent="1" source="jx57GtcmGhfgWrr7523l-1" target="jx57GtcmGhfgWrr7523l-50">
          <mxGeometry relative="1" as="geometry" />
        </mxCell>
        <mxCell id="jx57GtcmGhfgWrr7523l-83" style="edgeStyle=orthogonalEdgeStyle;rounded=0;orthogonalLoop=1;jettySize=auto;html=1;endArrow=none;endFill=0;" edge="1" parent="1" source="jx57GtcmGhfgWrr7523l-1">
          <mxGeometry relative="1" as="geometry">
            <mxPoint x="428" y="365" as="targetPoint" />
          </mxGeometry>
        </mxCell>
        <mxCell id="jx57GtcmGhfgWrr7523l-1" value="CLIENTE" style="rounded=0;whiteSpace=wrap;html=1;" vertex="1" parent="1">
          <mxGeometry x="368" y="40" width="120" height="60" as="geometry" />
        </mxCell>
        <mxCell id="jx57GtcmGhfgWrr7523l-2" value="&lt;u&gt;codigo&lt;/u&gt;" style="ellipse;whiteSpace=wrap;html=1;" vertex="1" parent="1">
          <mxGeometry x="470" y="120" width="80" height="30" as="geometry" />
        </mxCell>
        <mxCell id="jx57GtcmGhfgWrr7523l-3" value="nome/razao" style="ellipse;whiteSpace=wrap;html=1;" vertex="1" parent="1">
          <mxGeometry x="468" y="150" width="80" height="30" as="geometry" />
        </mxCell>
        <mxCell id="jx57GtcmGhfgWrr7523l-4" value="cod_end" style="ellipse;whiteSpace=wrap;html=1;" vertex="1" parent="1">
          <mxGeometry x="470" y="180" width="80" height="30" as="geometry" />
        </mxCell>
        <mxCell id="jx57GtcmGhfgWrr7523l-5" value="tel_res" style="ellipse;whiteSpace=wrap;html=1;" vertex="1" parent="1">
          <mxGeometry x="470" y="210" width="80" height="30" as="geometry" />
        </mxCell>
        <mxCell id="jx57GtcmGhfgWrr7523l-6" value="tel_com" style="ellipse;whiteSpace=wrap;html=1;" vertex="1" parent="1">
          <mxGeometry x="470" y="240" width="80" height="30" as="geometry" />
        </mxCell>
        <mxCell id="jx57GtcmGhfgWrr7523l-7" value="tel_cel" style="ellipse;whiteSpace=wrap;html=1;" vertex="1" parent="1">
          <mxGeometry x="470" y="270" width="80" height="30" as="geometry" />
        </mxCell>
        <mxCell id="jx57GtcmGhfgWrr7523l-10" value="cpf" style="ellipse;whiteSpace=wrap;html=1;" vertex="1" parent="1">
          <mxGeometry x="700" y="390" width="80" height="30" as="geometry" />
        </mxCell>
        <mxCell id="jx57GtcmGhfgWrr7523l-11" value="cnpj" style="ellipse;whiteSpace=wrap;html=1;" vertex="1" parent="1">
          <mxGeometry x="700" y="150" width="80" height="30" as="geometry" />
        </mxCell>
        <mxCell id="jx57GtcmGhfgWrr7523l-12" value="data_nasc" style="ellipse;whiteSpace=wrap;html=1;" vertex="1" parent="1">
          <mxGeometry x="700" y="450" width="80" height="30" as="geometry" />
        </mxCell>
        <mxCell id="jx57GtcmGhfgWrr7523l-13" value="rg" style="ellipse;whiteSpace=wrap;html=1;" vertex="1" parent="1">
          <mxGeometry x="700" y="420" width="80" height="30" as="geometry" />
        </mxCell>
        <mxCell id="jx57GtcmGhfgWrr7523l-14" value="sexo" style="ellipse;whiteSpace=wrap;html=1;" vertex="1" parent="1">
          <mxGeometry x="700" y="480" width="80" height="30" as="geometry" />
        </mxCell>
        <mxCell id="jx57GtcmGhfgWrr7523l-15" value="IE" style="ellipse;whiteSpace=wrap;html=1;" vertex="1" parent="1">
          <mxGeometry x="700" y="180" width="80" height="30" as="geometry" />
        </mxCell>
        <mxCell id="jx57GtcmGhfgWrr7523l-16" value="nome_resp" style="ellipse;whiteSpace=wrap;html=1;" vertex="1" parent="1">
          <mxGeometry x="700" y="210" width="80" height="30" as="geometry" />
        </mxCell>
        <mxCell id="jx57GtcmGhfgWrr7523l-17" style="edgeStyle=orthogonalEdgeStyle;rounded=0;orthogonalLoop=1;jettySize=auto;html=1;entryX=0.5;entryY=0;entryDx=0;entryDy=0;endArrow=none;endFill=0;" edge="1" parent="1" source="jx57GtcmGhfgWrr7523l-1">
          <mxGeometry relative="1" as="geometry">
            <mxPoint x="508" y="120" as="targetPoint" />
            <Array as="points">
              <mxPoint x="508" y="80" />
            </Array>
          </mxGeometry>
        </mxCell>
        <mxCell id="jx57GtcmGhfgWrr7523l-40" style="edgeStyle=orthogonalEdgeStyle;rounded=0;orthogonalLoop=1;jettySize=auto;html=1;entryX=0.5;entryY=1;entryDx=0;entryDy=0;" edge="1" parent="1" source="jx57GtcmGhfgWrr7523l-18" target="jx57GtcmGhfgWrr7523l-101">
          <mxGeometry relative="1" as="geometry">
            <mxPoint x="620" y="200" as="targetPoint" />
          </mxGeometry>
        </mxCell>
        <mxCell id="jx57GtcmGhfgWrr7523l-58" style="edgeStyle=orthogonalEdgeStyle;rounded=0;orthogonalLoop=1;jettySize=auto;html=1;endArrow=none;endFill=0;" edge="1" parent="1" source="jx57GtcmGhfgWrr7523l-18" target="jx57GtcmGhfgWrr7523l-57">
          <mxGeometry relative="1" as="geometry" />
        </mxCell>
        <mxCell id="jx57GtcmGhfgWrr7523l-18" value="CLIENTE_PF" style="rounded=0;whiteSpace=wrap;html=1;" vertex="1" parent="1">
          <mxGeometry x="680" y="280" width="120" height="60" as="geometry" />
        </mxCell>
        <mxCell id="jx57GtcmGhfgWrr7523l-39" style="edgeStyle=orthogonalEdgeStyle;rounded=0;orthogonalLoop=1;jettySize=auto;html=1;entryX=0.5;entryY=0;entryDx=0;entryDy=0;" edge="1" parent="1" source="jx57GtcmGhfgWrr7523l-19" target="jx57GtcmGhfgWrr7523l-101">
          <mxGeometry relative="1" as="geometry">
            <mxPoint x="620" y="160" as="targetPoint" />
          </mxGeometry>
        </mxCell>
        <mxCell id="jx57GtcmGhfgWrr7523l-56" style="edgeStyle=orthogonalEdgeStyle;rounded=0;orthogonalLoop=1;jettySize=auto;html=1;endArrow=none;endFill=0;" edge="1" parent="1" source="jx57GtcmGhfgWrr7523l-19" target="jx57GtcmGhfgWrr7523l-55">
          <mxGeometry relative="1" as="geometry" />
        </mxCell>
        <mxCell id="jx57GtcmGhfgWrr7523l-19" value="CLIENTE_PJ" style="rounded=0;whiteSpace=wrap;html=1;" vertex="1" parent="1">
          <mxGeometry x="680" y="40" width="120" height="60" as="geometry" />
        </mxCell>
        <mxCell id="jx57GtcmGhfgWrr7523l-41" style="edgeStyle=orthogonalEdgeStyle;rounded=0;orthogonalLoop=1;jettySize=auto;html=1;entryX=1;entryY=0.25;entryDx=0;entryDy=0;" edge="1" parent="1" target="jx57GtcmGhfgWrr7523l-1">
          <mxGeometry relative="1" as="geometry">
            <mxPoint x="600" y="180" as="sourcePoint" />
            <Array as="points">
              <mxPoint x="580" y="180" />
              <mxPoint x="580" y="55" />
            </Array>
          </mxGeometry>
        </mxCell>
        <mxCell id="jx57GtcmGhfgWrr7523l-34" style="edgeStyle=orthogonalEdgeStyle;rounded=0;orthogonalLoop=1;jettySize=auto;html=1;entryX=0;entryY=0.5;entryDx=0;entryDy=0;endArrow=none;endFill=0;" edge="1" parent="1" source="jx57GtcmGhfgWrr7523l-32" target="jx57GtcmGhfgWrr7523l-33">
          <mxGeometry relative="1" as="geometry">
            <Array as="points">
              <mxPoint x="20" y="70" />
              <mxPoint x="20" y="135" />
            </Array>
          </mxGeometry>
        </mxCell>
        <mxCell id="jx57GtcmGhfgWrr7523l-32" value="ENDERECO" style="rounded=0;whiteSpace=wrap;html=1;" vertex="1" parent="1">
          <mxGeometry x="40" y="40" width="120" height="60" as="geometry" />
        </mxCell>
        <mxCell id="jx57GtcmGhfgWrr7523l-33" value="&lt;u&gt;cep&lt;/u&gt;" style="ellipse;whiteSpace=wrap;html=1;" vertex="1" parent="1">
          <mxGeometry x="40" y="120" width="80" height="30" as="geometry" />
        </mxCell>
        <mxCell id="jx57GtcmGhfgWrr7523l-35" value="numero" style="ellipse;whiteSpace=wrap;html=1;" vertex="1" parent="1">
          <mxGeometry x="470" y="300" width="80" height="30" as="geometry" />
        </mxCell>
        <mxCell id="jx57GtcmGhfgWrr7523l-36" value="complemento" style="ellipse;whiteSpace=wrap;html=1;" vertex="1" parent="1">
          <mxGeometry x="470" y="330" width="80" height="30" as="geometry" />
        </mxCell>
        <mxCell id="jx57GtcmGhfgWrr7523l-42" value="1" style="text;html=1;align=center;verticalAlign=middle;resizable=0;points=[];autosize=1;strokeColor=none;fillColor=none;" vertex="1" parent="1">
          <mxGeometry x="488" y="30" width="30" height="30" as="geometry" />
        </mxCell>
        <mxCell id="jx57GtcmGhfgWrr7523l-43" value="1" style="text;html=1;align=center;verticalAlign=middle;resizable=0;points=[];autosize=1;strokeColor=none;fillColor=none;" vertex="1" parent="1">
          <mxGeometry x="650" y="40" width="30" height="30" as="geometry" />
        </mxCell>
        <mxCell id="jx57GtcmGhfgWrr7523l-44" value="1" style="text;html=1;align=center;verticalAlign=middle;resizable=0;points=[];autosize=1;strokeColor=none;fillColor=none;" vertex="1" parent="1">
          <mxGeometry x="650" y="280" width="30" height="30" as="geometry" />
        </mxCell>
        <mxCell id="jx57GtcmGhfgWrr7523l-45" value="estado" style="ellipse;whiteSpace=wrap;html=1;" vertex="1" parent="1">
          <mxGeometry x="40" y="150" width="80" height="30" as="geometry" />
        </mxCell>
        <mxCell id="jx57GtcmGhfgWrr7523l-46" value="cidade" style="ellipse;whiteSpace=wrap;html=1;" vertex="1" parent="1">
          <mxGeometry x="40" y="180" width="80" height="30" as="geometry" />
        </mxCell>
        <mxCell id="jx57GtcmGhfgWrr7523l-47" value="rua/av" style="ellipse;whiteSpace=wrap;html=1;" vertex="1" parent="1">
          <mxGeometry x="40" y="210" width="80" height="30" as="geometry" />
        </mxCell>
        <mxCell id="jx57GtcmGhfgWrr7523l-52" style="edgeStyle=orthogonalEdgeStyle;rounded=0;orthogonalLoop=1;jettySize=auto;html=1;" edge="1" parent="1" source="jx57GtcmGhfgWrr7523l-50" target="jx57GtcmGhfgWrr7523l-32">
          <mxGeometry relative="1" as="geometry" />
        </mxCell>
        <mxCell id="jx57GtcmGhfgWrr7523l-50" value="TEM" style="rhombus;whiteSpace=wrap;html=1;" vertex="1" parent="1">
          <mxGeometry x="250" y="50" width="40" height="40" as="geometry" />
        </mxCell>
        <mxCell id="jx57GtcmGhfgWrr7523l-53" value="1" style="text;html=1;align=center;verticalAlign=middle;resizable=0;points=[];autosize=1;strokeColor=none;fillColor=none;" vertex="1" parent="1">
          <mxGeometry x="338" y="40" width="30" height="30" as="geometry" />
        </mxCell>
        <mxCell id="jx57GtcmGhfgWrr7523l-54" value="1" style="text;html=1;align=center;verticalAlign=middle;resizable=0;points=[];autosize=1;strokeColor=none;fillColor=none;" vertex="1" parent="1">
          <mxGeometry x="160" y="40" width="30" height="30" as="geometry" />
        </mxCell>
        <mxCell id="jx57GtcmGhfgWrr7523l-55" value="&lt;u&gt;cod_pj&lt;/u&gt;" style="ellipse;whiteSpace=wrap;html=1;" vertex="1" parent="1">
          <mxGeometry x="700" y="120" width="80" height="30" as="geometry" />
        </mxCell>
        <mxCell id="jx57GtcmGhfgWrr7523l-57" value="&lt;u&gt;cod_pf&lt;/u&gt;" style="ellipse;whiteSpace=wrap;html=1;" vertex="1" parent="1">
          <mxGeometry x="700" y="360" width="80" height="30" as="geometry" />
        </mxCell>
        <mxCell id="jx57GtcmGhfgWrr7523l-70" style="edgeStyle=orthogonalEdgeStyle;rounded=0;orthogonalLoop=1;jettySize=auto;html=1;entryX=0.5;entryY=0;entryDx=0;entryDy=0;endArrow=none;endFill=0;" edge="1" parent="1" source="jx57GtcmGhfgWrr7523l-59" target="jx57GtcmGhfgWrr7523l-60">
          <mxGeometry relative="1" as="geometry" />
        </mxCell>
        <mxCell id="jx57GtcmGhfgWrr7523l-95" style="edgeStyle=orthogonalEdgeStyle;rounded=0;orthogonalLoop=1;jettySize=auto;html=1;" edge="1" parent="1" source="jx57GtcmGhfgWrr7523l-59">
          <mxGeometry relative="1" as="geometry">
            <mxPoint x="390" y="400" as="targetPoint" />
          </mxGeometry>
        </mxCell>
        <mxCell id="jx57GtcmGhfgWrr7523l-59" value="FUNCIONARIO" style="rounded=0;whiteSpace=wrap;html=1;" vertex="1" parent="1">
          <mxGeometry x="100" y="370" width="120" height="60" as="geometry" />
        </mxCell>
        <mxCell id="jx57GtcmGhfgWrr7523l-60" value="&lt;u&gt;codigo&lt;/u&gt;" style="ellipse;whiteSpace=wrap;html=1;" vertex="1" parent="1">
          <mxGeometry x="120" y="460" width="80" height="30" as="geometry" />
        </mxCell>
        <mxCell id="jx57GtcmGhfgWrr7523l-61" value="cod_end" style="ellipse;whiteSpace=wrap;html=1;" vertex="1" parent="1">
          <mxGeometry x="120" y="520" width="80" height="30" as="geometry" />
        </mxCell>
        <mxCell id="jx57GtcmGhfgWrr7523l-62" value="tel_res" style="ellipse;whiteSpace=wrap;html=1;" vertex="1" parent="1">
          <mxGeometry x="120" y="550" width="80" height="30" as="geometry" />
        </mxCell>
        <mxCell id="jx57GtcmGhfgWrr7523l-63" value="tel_com" style="ellipse;whiteSpace=wrap;html=1;" vertex="1" parent="1">
          <mxGeometry x="120" y="580" width="80" height="30" as="geometry" />
        </mxCell>
        <mxCell id="jx57GtcmGhfgWrr7523l-64" value="tel_cel" style="ellipse;whiteSpace=wrap;html=1;" vertex="1" parent="1">
          <mxGeometry x="120" y="610" width="80" height="30" as="geometry" />
        </mxCell>
        <mxCell id="jx57GtcmGhfgWrr7523l-65" value="numero" style="ellipse;whiteSpace=wrap;html=1;" vertex="1" parent="1">
          <mxGeometry x="120" y="640" width="80" height="30" as="geometry" />
        </mxCell>
        <mxCell id="jx57GtcmGhfgWrr7523l-66" value="complemento" style="ellipse;whiteSpace=wrap;html=1;" vertex="1" parent="1">
          <mxGeometry x="120" y="670" width="80" height="30" as="geometry" />
        </mxCell>
        <mxCell id="jx57GtcmGhfgWrr7523l-67" value="nome" style="ellipse;whiteSpace=wrap;html=1;" vertex="1" parent="1">
          <mxGeometry x="120" y="490" width="80" height="30" as="geometry" />
        </mxCell>
        <mxCell id="jx57GtcmGhfgWrr7523l-68" value="funcao" style="ellipse;whiteSpace=wrap;html=1;" vertex="1" parent="1">
          <mxGeometry x="120" y="700" width="80" height="30" as="geometry" />
        </mxCell>
        <mxCell id="jx57GtcmGhfgWrr7523l-69" value="departamento" style="ellipse;whiteSpace=wrap;html=1;" vertex="1" parent="1">
          <mxGeometry x="120" y="730" width="80" height="30" as="geometry" />
        </mxCell>
        <mxCell id="jx57GtcmGhfgWrr7523l-84" style="edgeStyle=orthogonalEdgeStyle;rounded=0;orthogonalLoop=1;jettySize=auto;html=1;" edge="1" parent="1" target="jx57GtcmGhfgWrr7523l-72">
          <mxGeometry relative="1" as="geometry">
            <mxPoint x="428" y="435" as="sourcePoint" />
          </mxGeometry>
        </mxCell>
        <mxCell id="jx57GtcmGhfgWrr7523l-93" style="edgeStyle=orthogonalEdgeStyle;rounded=0;orthogonalLoop=1;jettySize=auto;html=1;endArrow=none;endFill=0;" edge="1" parent="1" target="jx57GtcmGhfgWrr7523l-92">
          <mxGeometry relative="1" as="geometry">
            <mxPoint x="466" y="400" as="sourcePoint" />
          </mxGeometry>
        </mxCell>
        <mxCell id="jx57GtcmGhfgWrr7523l-81" style="edgeStyle=orthogonalEdgeStyle;rounded=0;orthogonalLoop=1;jettySize=auto;html=1;entryX=0.5;entryY=0;entryDx=0;entryDy=0;endArrow=none;endFill=0;" edge="1" parent="1" source="jx57GtcmGhfgWrr7523l-72" target="jx57GtcmGhfgWrr7523l-78">
          <mxGeometry relative="1" as="geometry" />
        </mxCell>
        <mxCell id="jx57GtcmGhfgWrr7523l-72" value="PRODUTO" style="rounded=0;whiteSpace=wrap;html=1;" vertex="1" parent="1">
          <mxGeometry x="368" y="600" width="120" height="60" as="geometry" />
        </mxCell>
        <mxCell id="jx57GtcmGhfgWrr7523l-73" value="nome" style="ellipse;whiteSpace=wrap;html=1;" vertex="1" parent="1">
          <mxGeometry x="388" y="720" width="80" height="30" as="geometry" />
        </mxCell>
        <mxCell id="jx57GtcmGhfgWrr7523l-74" value="descricao" style="ellipse;whiteSpace=wrap;html=1;" vertex="1" parent="1">
          <mxGeometry x="388" y="750" width="80" height="30" as="geometry" />
        </mxCell>
        <mxCell id="jx57GtcmGhfgWrr7523l-75" value="preco_venda" style="ellipse;whiteSpace=wrap;html=1;" vertex="1" parent="1">
          <mxGeometry x="388" y="810" width="80" height="30" as="geometry" />
        </mxCell>
        <mxCell id="jx57GtcmGhfgWrr7523l-76" value="preco_custo" style="ellipse;whiteSpace=wrap;html=1;" vertex="1" parent="1">
          <mxGeometry x="388" y="780" width="80" height="30" as="geometry" />
        </mxCell>
        <mxCell id="jx57GtcmGhfgWrr7523l-77" value="qtd_estoque" style="ellipse;whiteSpace=wrap;html=1;" vertex="1" parent="1">
          <mxGeometry x="388" y="840" width="80" height="30" as="geometry" />
        </mxCell>
        <mxCell id="jx57GtcmGhfgWrr7523l-78" value="&lt;u&gt;codigo&lt;/u&gt;" style="ellipse;whiteSpace=wrap;html=1;" vertex="1" parent="1">
          <mxGeometry x="388" y="690" width="80" height="30" as="geometry" />
        </mxCell>
        <mxCell id="jx57GtcmGhfgWrr7523l-79" value="qtd_minima" style="ellipse;whiteSpace=wrap;html=1;" vertex="1" parent="1">
          <mxGeometry x="388" y="870" width="80" height="30" as="geometry" />
        </mxCell>
        <mxCell id="jx57GtcmGhfgWrr7523l-80" value="tipo" style="ellipse;whiteSpace=wrap;html=1;" vertex="1" parent="1">
          <mxGeometry x="388" y="900" width="80" height="30" as="geometry" />
        </mxCell>
        <mxCell id="jx57GtcmGhfgWrr7523l-85" value="n" style="text;html=1;align=center;verticalAlign=middle;resizable=0;points=[];autosize=1;strokeColor=none;fillColor=none;" vertex="1" parent="1">
          <mxGeometry x="397" y="100" width="30" height="30" as="geometry" />
        </mxCell>
        <mxCell id="jx57GtcmGhfgWrr7523l-86" value="n" style="text;html=1;align=center;verticalAlign=middle;resizable=0;points=[];autosize=1;strokeColor=none;fillColor=none;" vertex="1" parent="1">
          <mxGeometry x="399" y="330" width="30" height="30" as="geometry" />
        </mxCell>
        <mxCell id="jx57GtcmGhfgWrr7523l-87" value="data" style="ellipse;whiteSpace=wrap;html=1;" vertex="1" parent="1">
          <mxGeometry x="488" y="415" width="80" height="30" as="geometry" />
        </mxCell>
        <mxCell id="jx57GtcmGhfgWrr7523l-88" value="valor_total" style="ellipse;whiteSpace=wrap;html=1;" vertex="1" parent="1">
          <mxGeometry x="488" y="445" width="80" height="30" as="geometry" />
        </mxCell>
        <mxCell id="jx57GtcmGhfgWrr7523l-89" value="produtos" style="ellipse;whiteSpace=wrap;html=1;" vertex="1" parent="1">
          <mxGeometry x="488" y="505" width="80" height="30" as="geometry" />
        </mxCell>
        <mxCell id="jx57GtcmGhfgWrr7523l-90" value="pagamento" style="ellipse;whiteSpace=wrap;html=1;" vertex="1" parent="1">
          <mxGeometry x="488" y="475" width="80" height="30" as="geometry" />
        </mxCell>
        <mxCell id="jx57GtcmGhfgWrr7523l-92" value="&lt;u&gt;codigo&lt;/u&gt;" style="ellipse;whiteSpace=wrap;html=1;" vertex="1" parent="1">
          <mxGeometry x="488" y="385" width="80" height="30" as="geometry" />
        </mxCell>
        <mxCell id="jx57GtcmGhfgWrr7523l-96" value="1" style="text;html=1;align=center;verticalAlign=middle;resizable=0;points=[];autosize=1;strokeColor=none;fillColor=none;" vertex="1" parent="1">
          <mxGeometry x="220" y="370" width="30" height="30" as="geometry" />
        </mxCell>
        <mxCell id="jx57GtcmGhfgWrr7523l-98" value="n" style="text;html=1;align=center;verticalAlign=middle;resizable=0;points=[];autosize=1;strokeColor=none;fillColor=none;" vertex="1" parent="1">
          <mxGeometry x="367" y="370" width="30" height="30" as="geometry" />
        </mxCell>
        <mxCell id="jx57GtcmGhfgWrr7523l-99" value="n" style="text;html=1;align=center;verticalAlign=middle;resizable=0;points=[];autosize=1;strokeColor=none;fillColor=none;" vertex="1" parent="1">
          <mxGeometry x="399" y="570" width="30" height="30" as="geometry" />
        </mxCell>
        <mxCell id="jx57GtcmGhfgWrr7523l-100" value="VENDA" style="shape=rhombus;double=1;perimeter=rhombusPerimeter;whiteSpace=wrap;html=1;align=center;" vertex="1" parent="1">
          <mxGeometry x="388" y="360" width="80" height="80" as="geometry" />
        </mxCell>
        <mxCell id="jx57GtcmGhfgWrr7523l-101" value="D T" style="shape=hexagon;perimeter=hexagonPerimeter2;whiteSpace=wrap;html=1;fixedSize=1;" vertex="1" parent="1">
          <mxGeometry x="600" y="160" width="60" height="40" as="geometry" />
        </mxCell>
        <mxCell id="jx57GtcmGhfgWrr7523l-103" value="n" style="text;html=1;align=center;verticalAlign=middle;resizable=0;points=[];autosize=1;strokeColor=none;fillColor=none;" vertex="1" parent="1">
          <mxGeometry x="397" y="430" width="30" height="30" as="geometry" />
        </mxCell>
      </root>
    </mxGraphModel>
  </diagram>
</mxfile>
